<mxfile host="app.diagrams.net" modified="2023-03-03T15:44:26.441Z" agent="5.0 (Windows NT 10.0; Win64; x64) AppleWebKit/537.36 (KHTML, like Gecko) Chrome/110.0.0.0 Safari/537.36" etag="YV2CNBpsOexC4ECfWvm6" version="21.0.2" type="github">
  <diagram name="运行机制" id="QOioI5O9c9zWEt676h6U">
    <mxGraphModel dx="2901" dy="1201" grid="1" gridSize="10" guides="1" tooltips="1" connect="1" arrows="1" fold="1" page="1" pageScale="1" pageWidth="827" pageHeight="1169" math="0" shadow="0">
      <root>
        <mxCell id="0" />
        <mxCell id="1" parent="0" />
        <mxCell id="9D4a1MfFK2hFuxu32SRj-1" value="客户端" style="rounded=0;whiteSpace=wrap;html=1;strokeWidth=3;fontSize=22;" vertex="1" parent="1">
          <mxGeometry x="-130" y="240" width="120" height="60" as="geometry" />
        </mxCell>
        <mxCell id="9D4a1MfFK2hFuxu32SRj-2" value="Server" style="rounded=0;whiteSpace=wrap;html=1;strokeWidth=3;fontSize=22;horizontal=1;verticalAlign=top;" vertex="1" parent="1">
          <mxGeometry x="-320" y="360" width="570" height="280" as="geometry" />
        </mxCell>
        <mxCell id="9D4a1MfFK2hFuxu32SRj-9" style="edgeStyle=orthogonalEdgeStyle;rounded=0;orthogonalLoop=1;jettySize=auto;html=1;strokeWidth=2;" edge="1" parent="1" source="9D4a1MfFK2hFuxu32SRj-3" target="9D4a1MfFK2hFuxu32SRj-4">
          <mxGeometry relative="1" as="geometry" />
        </mxCell>
        <mxCell id="9D4a1MfFK2hFuxu32SRj-17" style="edgeStyle=orthogonalEdgeStyle;rounded=0;orthogonalLoop=1;jettySize=auto;html=1;entryX=0;entryY=0.5;entryDx=0;entryDy=0;strokeWidth=2;" edge="1" parent="1" source="9D4a1MfFK2hFuxu32SRj-3" target="9D4a1MfFK2hFuxu32SRj-8">
          <mxGeometry relative="1" as="geometry" />
        </mxCell>
        <mxCell id="9D4a1MfFK2hFuxu32SRj-3" value="连接器" style="rounded=1;whiteSpace=wrap;html=1;strokeWidth=2;fontSize=18;" vertex="1" parent="1">
          <mxGeometry x="-270" y="420" width="120" height="50" as="geometry" />
        </mxCell>
        <mxCell id="9D4a1MfFK2hFuxu32SRj-10" style="edgeStyle=orthogonalEdgeStyle;rounded=0;orthogonalLoop=1;jettySize=auto;html=1;entryX=0;entryY=0.5;entryDx=0;entryDy=0;strokeWidth=2;" edge="1" parent="1" source="9D4a1MfFK2hFuxu32SRj-4" target="9D4a1MfFK2hFuxu32SRj-5">
          <mxGeometry relative="1" as="geometry" />
        </mxCell>
        <mxCell id="9D4a1MfFK2hFuxu32SRj-18" style="edgeStyle=orthogonalEdgeStyle;rounded=0;orthogonalLoop=1;jettySize=auto;html=1;entryX=1;entryY=0.5;entryDx=0;entryDy=0;strokeWidth=2;" edge="1" parent="1" source="9D4a1MfFK2hFuxu32SRj-4" target="9D4a1MfFK2hFuxu32SRj-8">
          <mxGeometry relative="1" as="geometry" />
        </mxCell>
        <mxCell id="9D4a1MfFK2hFuxu32SRj-4" value="分析器" style="rounded=1;whiteSpace=wrap;html=1;strokeWidth=2;fontSize=18;" vertex="1" parent="1">
          <mxGeometry x="-90" y="420" width="120" height="50" as="geometry" />
        </mxCell>
        <mxCell id="9D4a1MfFK2hFuxu32SRj-11" style="edgeStyle=orthogonalEdgeStyle;rounded=0;orthogonalLoop=1;jettySize=auto;html=1;strokeWidth=2;" edge="1" parent="1" source="9D4a1MfFK2hFuxu32SRj-5" target="9D4a1MfFK2hFuxu32SRj-6">
          <mxGeometry relative="1" as="geometry" />
        </mxCell>
        <mxCell id="9D4a1MfFK2hFuxu32SRj-5" value="优化器" style="rounded=1;whiteSpace=wrap;html=1;strokeWidth=2;fontSize=18;" vertex="1" parent="1">
          <mxGeometry x="80" y="420" width="120" height="50" as="geometry" />
        </mxCell>
        <mxCell id="9D4a1MfFK2hFuxu32SRj-13" style="edgeStyle=orthogonalEdgeStyle;rounded=0;orthogonalLoop=1;jettySize=auto;html=1;entryX=0.5;entryY=0;entryDx=0;entryDy=0;exitX=0.5;exitY=1;exitDx=0;exitDy=0;strokeWidth=2;" edge="1" parent="1" source="9D4a1MfFK2hFuxu32SRj-6" target="9D4a1MfFK2hFuxu32SRj-14">
          <mxGeometry relative="1" as="geometry" />
        </mxCell>
        <mxCell id="9D4a1MfFK2hFuxu32SRj-6" value="执行器" style="rounded=1;whiteSpace=wrap;html=1;strokeWidth=2;fontSize=18;" vertex="1" parent="1">
          <mxGeometry x="80" y="540" width="120" height="50" as="geometry" />
        </mxCell>
        <mxCell id="9D4a1MfFK2hFuxu32SRj-7" style="edgeStyle=orthogonalEdgeStyle;rounded=0;orthogonalLoop=1;jettySize=auto;html=1;entryX=0.193;entryY=0.214;entryDx=0;entryDy=0;entryPerimeter=0;strokeWidth=2;" edge="1" parent="1" source="9D4a1MfFK2hFuxu32SRj-1" target="9D4a1MfFK2hFuxu32SRj-2">
          <mxGeometry relative="1" as="geometry" />
        </mxCell>
        <mxCell id="9D4a1MfFK2hFuxu32SRj-8" value="查询缓存" style="rounded=1;whiteSpace=wrap;html=1;strokeWidth=2;fontSize=18;" vertex="1" parent="1">
          <mxGeometry x="-180" y="500" width="120" height="50" as="geometry" />
        </mxCell>
        <mxCell id="9D4a1MfFK2hFuxu32SRj-19" style="edgeStyle=orthogonalEdgeStyle;rounded=0;orthogonalLoop=1;jettySize=auto;html=1;entryX=0;entryY=0.5;entryDx=0;entryDy=0;strokeWidth=2;" edge="1" parent="1" source="9D4a1MfFK2hFuxu32SRj-14" target="9D4a1MfFK2hFuxu32SRj-16">
          <mxGeometry relative="1" as="geometry" />
        </mxCell>
        <mxCell id="9D4a1MfFK2hFuxu32SRj-14" value="存储引擎" style="rounded=0;whiteSpace=wrap;html=1;strokeWidth=2;fontStyle=1;fontSize=22;" vertex="1" parent="1">
          <mxGeometry x="-320" y="720" width="380" height="60" as="geometry" />
        </mxCell>
        <mxCell id="9D4a1MfFK2hFuxu32SRj-12" value="Innodb" style="rounded=0;whiteSpace=wrap;html=1;strokeWidth=2;fontSize=16;" vertex="1" parent="1">
          <mxGeometry x="-310" y="730" width="100" height="40" as="geometry" />
        </mxCell>
        <mxCell id="9D4a1MfFK2hFuxu32SRj-15" value="MYISAM" style="rounded=0;whiteSpace=wrap;html=1;strokeWidth=2;fontSize=16;" vertex="1" parent="1">
          <mxGeometry x="-70" y="730" width="100" height="40" as="geometry" />
        </mxCell>
        <mxCell id="9D4a1MfFK2hFuxu32SRj-16" value="数据" style="rounded=0;whiteSpace=wrap;html=1;strokeWidth=2;fontSize=16;" vertex="1" parent="1">
          <mxGeometry x="130" y="730" width="100" height="40" as="geometry" />
        </mxCell>
        <mxCell id="9D4a1MfFK2hFuxu32SRj-20" value="&lt;b&gt;&lt;font style=&quot;font-size: 16px;&quot;&gt;连接器&lt;/font&gt;&lt;/b&gt;" style="text;html=1;strokeColor=none;fillColor=none;align=left;verticalAlign=middle;whiteSpace=wrap;rounded=0;" vertex="1" parent="1">
          <mxGeometry x="450" y="340" width="270" height="30" as="geometry" />
        </mxCell>
      </root>
    </mxGraphModel>
  </diagram>
</mxfile>
